<?xml version="1.0" encoding="UTF-8" standalone="no"?>
<!DOCTYPE svg PUBLIC "-//W3C//DTD SVG 1.1//EN" "http://www.w3.org/Graphics/SVG/1.1/DTD/svg11.dtd">
<!-- Generated by graphviz version 2.40.1 (20161225.0304)
 -->
<!-- Title: graph Pages: 1 -->
<svg width="1377pt" height="1098pt" viewBox="0.00 0.00 1377.43 1097.80" xmlns="http://www.w3.org/2000/svg" xmlns:xlink="http://www.w3.org/1999/xlink">
<g id="graph0" class="graph" transform="scale(1 1) rotate(0) translate(4 1093.8)">
<title>graph</title>
<polygon fill="#ffffff" stroke="transparent" points="-4,4 -4,-1093.8 1373.4328,-1093.8 1373.4328,4 -4,4"/>
<!-- max&#45;pool0 -->
<g id="node1" class="node">
<title>max-pool0</title>
<polygon fill="none" stroke="#000000" points="0,-1039.7 0,-1089.3 215.188,-1089.3 215.188,-1039.7 0,-1039.7"/>
<text text-anchor="middle" x="34.8282" y="-1060.3" font-family="Times,serif" font-size="14.00" fill="#000000">max-pool</text>
<polyline fill="none" stroke="#000000" points="69.6564,-1039.7 69.6564,-1089.3 "/>
<text text-anchor="middle" x="84.6017" y="-1072.7" font-family="Times,serif" font-size="14.00" fill="#000000">in</text>
<polyline fill="none" stroke="#000000" points="99.547,-1064.5 99.547,-1089.3 "/>
<text text-anchor="middle" x="157.3675" y="-1072.7" font-family="Times,serif" font-size="14.00" fill="#000000">256x256x1(data)</text>
<polyline fill="none" stroke="#000000" points="69.6564,-1064.5 215.188,-1064.5 "/>
<text text-anchor="middle" x="86.6017" y="-1047.9" font-family="Times,serif" font-size="14.00" fill="#000000">out</text>
<polyline fill="none" stroke="#000000" points="103.547,-1039.7 103.547,-1064.5 "/>
<text text-anchor="middle" x="159.3675" y="-1047.9" font-family="Times,serif" font-size="14.00" fill="#000000">128x128x1(data)</text>
</g>
<!-- conv0 -->
<g id="node2" class="node">
<title>conv0</title>
<polygon fill="none" stroke="#000000" points="34.0736,-953.1 34.0736,-1002.7 411.1144,-1002.7 411.1144,-953.1 34.0736,-953.1"/>
<text text-anchor="middle" x="55.6809" y="-973.7" font-family="Times,serif" font-size="14.00" fill="#000000">conv</text>
<polyline fill="none" stroke="#000000" points="77.2882,-953.1 77.2882,-1002.7 "/>
<text text-anchor="middle" x="90.7335" y="-986.1" font-family="Times,serif" font-size="14.00" fill="#000000">in</text>
<polyline fill="none" stroke="#000000" points="104.1788,-977.9 104.1788,-1002.7 "/>
<text text-anchor="middle" x="159.9993" y="-986.1" font-family="Times,serif" font-size="14.00" fill="#000000">128x128x1(data)</text>
<polyline fill="none" stroke="#000000" points="215.8198,-977.9 215.8198,-1002.7 "/>
<text text-anchor="middle" x="268.5316" y="-986.1" font-family="Times,serif" font-size="14.00" fill="#000000">5x5x16(weight)</text>
<polyline fill="none" stroke="#000000" points="321.2434,-977.9 321.2434,-1002.7 "/>
<text text-anchor="middle" x="366.1789" y="-986.1" font-family="Times,serif" font-size="14.00" fill="#000000">1x1x16(bias)</text>
<polyline fill="none" stroke="#000000" points="77.2882,-977.9 411.1144,-977.9 "/>
<text text-anchor="middle" x="139.2335" y="-961.3" font-family="Times,serif" font-size="14.00" fill="#000000">out</text>
<polyline fill="none" stroke="#000000" points="201.1788,-953.1 201.1788,-977.9 "/>
<text text-anchor="middle" x="305.9993" y="-961.3" font-family="Times,serif" font-size="14.00" fill="#000000">124x124x16(data)</text>
</g>
<!-- max&#45;pool0&#45;&gt;conv0 -->
<g id="edge1" class="edge">
<title>max-pool0:out0-&gt;conv0:in0</title>
<path fill="none" stroke="#000000" d="M215.594,-1052.5C221.5051,-1052.5 218.4167,-1044.3936 215.594,-1039.2 203.4221,-1016.8046 170.8132,-1027.9978 161.8827,-1012.7642"/>
<polygon fill="#000000" stroke="#000000" points="165.2637,-1011.8502 159.594,-1002.9 158.4448,-1013.4323 165.2637,-1011.8502"/>
</g>
<!-- max&#45;pool1 -->
<g id="node3" class="node">
<title>max-pool1</title>
<polygon fill="none" stroke="#000000" points="150,-866.5 150,-916.1 365.188,-916.1 365.188,-866.5 150,-866.5"/>
<text text-anchor="middle" x="184.8282" y="-887.1" font-family="Times,serif" font-size="14.00" fill="#000000">max-pool</text>
<polyline fill="none" stroke="#000000" points="219.6564,-866.5 219.6564,-916.1 "/>
<text text-anchor="middle" x="233.1017" y="-899.5" font-family="Times,serif" font-size="14.00" fill="#000000">in</text>
<polyline fill="none" stroke="#000000" points="246.547,-891.3 246.547,-916.1 "/>
<text text-anchor="middle" x="305.8675" y="-899.5" font-family="Times,serif" font-size="14.00" fill="#000000">124x124x16(data)</text>
<polyline fill="none" stroke="#000000" points="219.6564,-891.3 365.188,-891.3 "/>
<text text-anchor="middle" x="238.1017" y="-874.7" font-family="Times,serif" font-size="14.00" fill="#000000">out</text>
<polyline fill="none" stroke="#000000" points="256.547,-866.5 256.547,-891.3 "/>
<text text-anchor="middle" x="310.8675" y="-874.7" font-family="Times,serif" font-size="14.00" fill="#000000">62x62x16(data)</text>
</g>
<!-- conv0&#45;&gt;max&#45;pool1 -->
<g id="edge2" class="edge">
<title>conv0:out0-&gt;max-pool1:in0</title>
<path fill="none" stroke="#000000" d="M305.594,-952.9C305.594,-940.5729 305.594,-935.252 305.594,-926.3186"/>
<polygon fill="#000000" stroke="#000000" points="309.0941,-926.3 305.594,-916.3 302.0941,-926.3 309.0941,-926.3"/>
</g>
<!-- conv1 -->
<g id="node4" class="node">
<title>conv1</title>
<polygon fill="none" stroke="#000000" points="188.0736,-779.9 188.0736,-829.5 565.1144,-829.5 565.1144,-779.9 188.0736,-779.9"/>
<text text-anchor="middle" x="209.6809" y="-800.5" font-family="Times,serif" font-size="14.00" fill="#000000">conv</text>
<polyline fill="none" stroke="#000000" points="231.2882,-779.9 231.2882,-829.5 "/>
<text text-anchor="middle" x="244.7335" y="-812.9" font-family="Times,serif" font-size="14.00" fill="#000000">in</text>
<polyline fill="none" stroke="#000000" points="258.1788,-804.7 258.1788,-829.5 "/>
<text text-anchor="middle" x="310.4993" y="-812.9" font-family="Times,serif" font-size="14.00" fill="#000000">62x62x16(data)</text>
<polyline fill="none" stroke="#000000" points="362.8198,-804.7 362.8198,-829.5 "/>
<text text-anchor="middle" x="419.0316" y="-812.9" font-family="Times,serif" font-size="14.00" fill="#000000">5x5x512(weight)</text>
<polyline fill="none" stroke="#000000" points="475.2434,-804.7 475.2434,-829.5 "/>
<text text-anchor="middle" x="520.1789" y="-812.9" font-family="Times,serif" font-size="14.00" fill="#000000">1x1x32(bias)</text>
<polyline fill="none" stroke="#000000" points="231.2882,-804.7 565.1144,-804.7 "/>
<text text-anchor="middle" x="296.7335" y="-788.1" font-family="Times,serif" font-size="14.00" fill="#000000">out</text>
<polyline fill="none" stroke="#000000" points="362.1788,-779.9 362.1788,-804.7 "/>
<text text-anchor="middle" x="463.4993" y="-788.1" font-family="Times,serif" font-size="14.00" fill="#000000">58x58x32(data)</text>
</g>
<!-- max&#45;pool1&#45;&gt;conv1 -->
<g id="edge3" class="edge">
<title>max-pool1:out0-&gt;conv1:in0</title>
<path fill="none" stroke="#000000" d="M365.594,-879.3C371.5051,-879.3 368.3953,-871.2052 365.594,-866 353.6661,-843.836 321.6204,-854.5882 312.8434,-839.462"/>
<polygon fill="#000000" stroke="#000000" points="316.2501,-838.6587 310.594,-829.7 309.4288,-840.2306 316.2501,-838.6587"/>
</g>
<!-- max&#45;pool2 -->
<g id="node5" class="node">
<title>max-pool2</title>
<polygon fill="none" stroke="#000000" points="309.5,-693.3 309.5,-742.9 517.688,-742.9 517.688,-693.3 309.5,-693.3"/>
<text text-anchor="middle" x="344.3282" y="-713.9" font-family="Times,serif" font-size="14.00" fill="#000000">max-pool</text>
<polyline fill="none" stroke="#000000" points="379.1564,-693.3 379.1564,-742.9 "/>
<text text-anchor="middle" x="394.1017" y="-726.3" font-family="Times,serif" font-size="14.00" fill="#000000">in</text>
<polyline fill="none" stroke="#000000" points="409.047,-718.1 409.047,-742.9 "/>
<text text-anchor="middle" x="463.3675" y="-726.3" font-family="Times,serif" font-size="14.00" fill="#000000">58x58x32(data)</text>
<polyline fill="none" stroke="#000000" points="379.1564,-718.1 517.688,-718.1 "/>
<text text-anchor="middle" x="396.1017" y="-701.5" font-family="Times,serif" font-size="14.00" fill="#000000">out</text>
<polyline fill="none" stroke="#000000" points="413.047,-693.3 413.047,-718.1 "/>
<text text-anchor="middle" x="465.3675" y="-701.5" font-family="Times,serif" font-size="14.00" fill="#000000">29x29x32(data)</text>
</g>
<!-- conv1&#45;&gt;max&#45;pool2 -->
<g id="edge4" class="edge">
<title>conv1:out0-&gt;max-pool2:in0</title>
<path fill="none" stroke="#000000" d="M463.594,-779.7C463.594,-767.3729 463.594,-762.052 463.594,-753.1186"/>
<polygon fill="#000000" stroke="#000000" points="467.0941,-753.1 463.594,-743.1 460.0941,-753.1 467.0941,-753.1"/>
</g>
<!-- conv2 -->
<g id="node6" class="node">
<title>conv2</title>
<polygon fill="none" stroke="#000000" points="343.5736,-606.7 343.5736,-656.3 727.6144,-656.3 727.6144,-606.7 343.5736,-606.7"/>
<text text-anchor="middle" x="365.1809" y="-627.3" font-family="Times,serif" font-size="14.00" fill="#000000">conv</text>
<polyline fill="none" stroke="#000000" points="386.7882,-606.7 386.7882,-656.3 "/>
<text text-anchor="middle" x="400.2335" y="-639.7" font-family="Times,serif" font-size="14.00" fill="#000000">in</text>
<polyline fill="none" stroke="#000000" points="413.6788,-631.5 413.6788,-656.3 "/>
<text text-anchor="middle" x="465.9993" y="-639.7" font-family="Times,serif" font-size="14.00" fill="#000000">29x29x32(data)</text>
<polyline fill="none" stroke="#000000" points="518.3198,-631.5 518.3198,-656.3 "/>
<text text-anchor="middle" x="578.0316" y="-639.7" font-family="Times,serif" font-size="14.00" fill="#000000">5x5x2048(weight)</text>
<polyline fill="none" stroke="#000000" points="637.7434,-631.5 637.7434,-656.3 "/>
<text text-anchor="middle" x="682.6789" y="-639.7" font-family="Times,serif" font-size="14.00" fill="#000000">1x1x64(bias)</text>
<polyline fill="none" stroke="#000000" points="386.7882,-631.5 727.6144,-631.5 "/>
<text text-anchor="middle" x="454.2335" y="-614.9" font-family="Times,serif" font-size="14.00" fill="#000000">out</text>
<polyline fill="none" stroke="#000000" points="521.6788,-606.7 521.6788,-631.5 "/>
<text text-anchor="middle" x="624.4993" y="-614.9" font-family="Times,serif" font-size="14.00" fill="#000000">25x25x64(data)</text>
</g>
<!-- max&#45;pool2&#45;&gt;conv2 -->
<g id="edge5" class="edge">
<title>max-pool2:out0-&gt;conv2:in0</title>
<path fill="none" stroke="#000000" d="M517.594,-706.1C523.5051,-706.1 520.3272,-698.0413 517.594,-692.8 506.4961,-671.5183 476.5911,-680.5975 467.9575,-666.3569"/>
<polygon fill="#000000" stroke="#000000" points="471.3293,-665.4082 465.594,-656.5 464.5223,-667.0405 471.3293,-665.4082"/>
</g>
<!-- max&#45;pool3 -->
<g id="node7" class="node">
<title>max-pool3</title>
<polygon fill="none" stroke="#000000" points="470.5,-520.1 470.5,-569.7 678.688,-569.7 678.688,-520.1 470.5,-520.1"/>
<text text-anchor="middle" x="505.3282" y="-540.7" font-family="Times,serif" font-size="14.00" fill="#000000">max-pool</text>
<polyline fill="none" stroke="#000000" points="540.1564,-520.1 540.1564,-569.7 "/>
<text text-anchor="middle" x="555.1017" y="-553.1" font-family="Times,serif" font-size="14.00" fill="#000000">in</text>
<polyline fill="none" stroke="#000000" points="570.047,-544.9 570.047,-569.7 "/>
<text text-anchor="middle" x="624.3675" y="-553.1" font-family="Times,serif" font-size="14.00" fill="#000000">25x25x64(data)</text>
<polyline fill="none" stroke="#000000" points="540.1564,-544.9 678.688,-544.9 "/>
<text text-anchor="middle" x="557.1017" y="-528.3" font-family="Times,serif" font-size="14.00" fill="#000000">out</text>
<polyline fill="none" stroke="#000000" points="574.047,-520.1 574.047,-544.9 "/>
<text text-anchor="middle" x="626.3675" y="-528.3" font-family="Times,serif" font-size="14.00" fill="#000000">12x12x64(data)</text>
</g>
<!-- conv2&#45;&gt;max&#45;pool3 -->
<g id="edge6" class="edge">
<title>conv2:out0-&gt;max-pool3:in0</title>
<path fill="none" stroke="#000000" d="M624.594,-606.5C624.594,-594.1729 624.594,-588.852 624.594,-579.9186"/>
<polygon fill="#000000" stroke="#000000" points="628.0941,-579.9 624.594,-569.9 621.0941,-579.9 628.0941,-579.9"/>
</g>
<!-- conv3 -->
<g id="node8" class="node">
<title>conv3</title>
<polygon fill="none" stroke="#000000" points="504.0736,-433.5 504.0736,-483.1 895.1144,-483.1 895.1144,-433.5 504.0736,-433.5"/>
<text text-anchor="middle" x="525.6809" y="-454.1" font-family="Times,serif" font-size="14.00" fill="#000000">conv</text>
<polyline fill="none" stroke="#000000" points="547.2882,-433.5 547.2882,-483.1 "/>
<text text-anchor="middle" x="560.7335" y="-466.5" font-family="Times,serif" font-size="14.00" fill="#000000">in</text>
<polyline fill="none" stroke="#000000" points="574.1788,-458.3 574.1788,-483.1 "/>
<text text-anchor="middle" x="626.4993" y="-466.5" font-family="Times,serif" font-size="14.00" fill="#000000">12x12x64(data)</text>
<polyline fill="none" stroke="#000000" points="678.8198,-458.3 678.8198,-483.1 "/>
<text text-anchor="middle" x="738.5316" y="-466.5" font-family="Times,serif" font-size="14.00" fill="#000000">3x3x8192(weight)</text>
<polyline fill="none" stroke="#000000" points="798.2434,-458.3 798.2434,-483.1 "/>
<text text-anchor="middle" x="846.6789" y="-466.5" font-family="Times,serif" font-size="14.00" fill="#000000">1x1x128(bias)</text>
<polyline fill="none" stroke="#000000" points="547.2882,-458.3 895.1144,-458.3 "/>
<text text-anchor="middle" x="614.7335" y="-441.7" font-family="Times,serif" font-size="14.00" fill="#000000">out</text>
<polyline fill="none" stroke="#000000" points="682.1788,-433.5 682.1788,-458.3 "/>
<text text-anchor="middle" x="788.4993" y="-441.7" font-family="Times,serif" font-size="14.00" fill="#000000">10x10x128(data)</text>
</g>
<!-- max&#45;pool3&#45;&gt;conv3 -->
<g id="edge7" class="edge">
<title>max-pool3:out0-&gt;conv3:in0</title>
<path fill="none" stroke="#000000" d="M678.594,-532.9C684.5051,-532.9 681.3272,-524.8413 678.594,-519.6 667.4961,-498.3183 637.5911,-507.3975 628.9575,-493.1569"/>
<polygon fill="#000000" stroke="#000000" points="632.3293,-492.2082 626.594,-483.3 625.5223,-493.8405 632.3293,-492.2082"/>
</g>
<!-- fully&#45;connected0 -->
<g id="node9" class="node">
<title>fully-connected0</title>
<polygon fill="none" stroke="#000000" points="601.7552,-346.9 601.7552,-396.5 1081.4328,-396.5 1081.4328,-346.9 601.7552,-346.9"/>
<text text-anchor="middle" x="653.6809" y="-367.5" font-family="Times,serif" font-size="14.00" fill="#000000">fully-connected</text>
<polyline fill="none" stroke="#000000" points="705.6066,-346.9 705.6066,-396.5 "/>
<text text-anchor="middle" x="719.0519" y="-379.9" font-family="Times,serif" font-size="14.00" fill="#000000">in</text>
<polyline fill="none" stroke="#000000" points="732.4972,-371.7 732.4972,-396.5 "/>
<text text-anchor="middle" x="788.3177" y="-379.9" font-family="Times,serif" font-size="14.00" fill="#000000">12800x1x1(data)</text>
<polyline fill="none" stroke="#000000" points="844.1382,-371.7 844.1382,-396.5 "/>
<text text-anchor="middle" x="914.35" y="-379.9" font-family="Times,serif" font-size="14.00" fill="#000000">12800x200x1(weight)</text>
<polyline fill="none" stroke="#000000" points="984.5618,-371.7 984.5618,-396.5 "/>
<text text-anchor="middle" x="1032.9973" y="-379.9" font-family="Times,serif" font-size="14.00" fill="#000000">200x1x1(bias)</text>
<polyline fill="none" stroke="#000000" points="705.6066,-371.7 1081.4328,-371.7 "/>
<text text-anchor="middle" x="783.5519" y="-355.1" font-family="Times,serif" font-size="14.00" fill="#000000">out</text>
<polyline fill="none" stroke="#000000" points="861.4972,-346.9 861.4972,-371.7 "/>
<text text-anchor="middle" x="971.3177" y="-355.1" font-family="Times,serif" font-size="14.00" fill="#000000">200x1x1(data)</text>
</g>
<!-- conv3&#45;&gt;fully&#45;connected0 -->
<g id="edge8" class="edge">
<title>conv3:out0-&gt;fully-connected0:in0</title>
<path fill="none" stroke="#000000" d="M788.594,-433.3C788.594,-420.9729 788.594,-415.652 788.594,-406.7186"/>
<polygon fill="#000000" stroke="#000000" points="792.0941,-406.7 788.594,-396.7 785.0941,-406.7 792.0941,-406.7"/>
</g>
<!-- relu&#45;activation0 -->
<g id="node10" class="node">
<title>relu-activation0</title>
<polygon fill="none" stroke="#000000" points="793.0119,-260.3 793.0119,-309.9 1022.1761,-309.9 1022.1761,-260.3 793.0119,-260.3"/>
<text text-anchor="middle" x="841.8282" y="-280.9" font-family="Times,serif" font-size="14.00" fill="#000000">relu-activation</text>
<polyline fill="none" stroke="#000000" points="890.6445,-260.3 890.6445,-309.9 "/>
<text text-anchor="middle" x="905.5898" y="-293.3" font-family="Times,serif" font-size="14.00" fill="#000000">in</text>
<polyline fill="none" stroke="#000000" points="920.5351,-285.1 920.5351,-309.9 "/>
<text text-anchor="middle" x="971.3556" y="-293.3" font-family="Times,serif" font-size="14.00" fill="#000000">200x1x1(data)</text>
<polyline fill="none" stroke="#000000" points="890.6445,-285.1 1022.1761,-285.1 "/>
<text text-anchor="middle" x="907.5898" y="-268.5" font-family="Times,serif" font-size="14.00" fill="#000000">out</text>
<polyline fill="none" stroke="#000000" points="924.5351,-260.3 924.5351,-285.1 "/>
<text text-anchor="middle" x="973.3556" y="-268.5" font-family="Times,serif" font-size="14.00" fill="#000000">200x1x1(data)</text>
</g>
<!-- fully&#45;connected0&#45;&gt;relu&#45;activation0 -->
<g id="edge9" class="edge">
<title>fully-connected0:out0-&gt;relu-activation0:in0</title>
<path fill="none" stroke="#000000" d="M971.594,-346.7C971.594,-334.3729 971.594,-329.052 971.594,-320.1186"/>
<polygon fill="#000000" stroke="#000000" points="975.0941,-320.1 971.594,-310.1 968.0941,-320.1 975.0941,-320.1"/>
</g>
<!-- fully&#45;connected1 -->
<g id="node11" class="node">
<title>fully-connected1</title>
<polygon fill="none" stroke="#000000" points="793.7552,-173.7 793.7552,-223.3 1231.4328,-223.3 1231.4328,-173.7 793.7552,-173.7"/>
<text text-anchor="middle" x="845.6809" y="-194.3" font-family="Times,serif" font-size="14.00" fill="#000000">fully-connected</text>
<polyline fill="none" stroke="#000000" points="897.6066,-173.7 897.6066,-223.3 "/>
<text text-anchor="middle" x="911.0519" y="-206.7" font-family="Times,serif" font-size="14.00" fill="#000000">in</text>
<polyline fill="none" stroke="#000000" points="924.4972,-198.5 924.4972,-223.3 "/>
<text text-anchor="middle" x="973.3177" y="-206.7" font-family="Times,serif" font-size="14.00" fill="#000000">200x1x1(data)</text>
<polyline fill="none" stroke="#000000" points="1022.1382,-198.5 1022.1382,-223.3 "/>
<text text-anchor="middle" x="1081.85" y="-206.7" font-family="Times,serif" font-size="14.00" fill="#000000">200x20x1(weight)</text>
<polyline fill="none" stroke="#000000" points="1141.5618,-198.5 1141.5618,-223.3 "/>
<text text-anchor="middle" x="1186.4973" y="-206.7" font-family="Times,serif" font-size="14.00" fill="#000000">20x1x1(bias)</text>
<polyline fill="none" stroke="#000000" points="897.6066,-198.5 1231.4328,-198.5 "/>
<text text-anchor="middle" x="966.5519" y="-181.9" font-family="Times,serif" font-size="14.00" fill="#000000">out</text>
<polyline fill="none" stroke="#000000" points="1035.4972,-173.7 1035.4972,-198.5 "/>
<text text-anchor="middle" x="1133.3177" y="-181.9" font-family="Times,serif" font-size="14.00" fill="#000000">20x1x1(data)</text>
</g>
<!-- relu&#45;activation0&#45;&gt;fully&#45;connected1 -->
<g id="edge10" class="edge">
<title>relu-activation0:out0-&gt;fully-connected1:in0</title>
<path fill="none" stroke="#000000" d="M973.594,-260.1C973.594,-247.7729 973.594,-242.452 973.594,-233.5186"/>
<polygon fill="#000000" stroke="#000000" points="977.0941,-233.5 973.594,-223.5 970.0941,-233.5 977.0941,-233.5"/>
</g>
<!-- relu&#45;activation1 -->
<g id="node12" class="node">
<title>relu-activation1</title>
<polygon fill="none" stroke="#000000" points="958.5119,-87.1 958.5119,-136.7 1180.6761,-136.7 1180.6761,-87.1 958.5119,-87.1"/>
<text text-anchor="middle" x="1007.3282" y="-107.7" font-family="Times,serif" font-size="14.00" fill="#000000">relu-activation</text>
<polyline fill="none" stroke="#000000" points="1056.1445,-87.1 1056.1445,-136.7 "/>
<text text-anchor="middle" x="1071.0898" y="-120.1" font-family="Times,serif" font-size="14.00" fill="#000000">in</text>
<polyline fill="none" stroke="#000000" points="1086.0351,-111.9 1086.0351,-136.7 "/>
<text text-anchor="middle" x="1133.3556" y="-120.1" font-family="Times,serif" font-size="14.00" fill="#000000">20x1x1(data)</text>
<polyline fill="none" stroke="#000000" points="1056.1445,-111.9 1180.6761,-111.9 "/>
<text text-anchor="middle" x="1073.0898" y="-95.3" font-family="Times,serif" font-size="14.00" fill="#000000">out</text>
<polyline fill="none" stroke="#000000" points="1090.0351,-87.1 1090.0351,-111.9 "/>
<text text-anchor="middle" x="1135.3556" y="-95.3" font-family="Times,serif" font-size="14.00" fill="#000000">20x1x1(data)</text>
</g>
<!-- fully&#45;connected1&#45;&gt;relu&#45;activation1 -->
<g id="edge11" class="edge">
<title>fully-connected1:out0-&gt;relu-activation1:in0</title>
<path fill="none" stroke="#000000" d="M1133.594,-173.5C1133.594,-161.1729 1133.594,-155.852 1133.594,-146.9186"/>
<polygon fill="#000000" stroke="#000000" points="1137.0941,-146.9 1133.594,-136.9 1130.0941,-146.9 1137.0941,-146.9"/>
</g>
<!-- fully&#45;connected2 -->
<g id="node13" class="node">
<title>fully-connected2</title>
<polygon fill="none" stroke="#000000" points="959.7552,-.5 959.7552,-50.1 1369.4328,-50.1 1369.4328,-.5 959.7552,-.5"/>
<text text-anchor="middle" x="1011.6809" y="-21.1" font-family="Times,serif" font-size="14.00" fill="#000000">fully-connected</text>
<polyline fill="none" stroke="#000000" points="1063.6066,-.5 1063.6066,-50.1 "/>
<text text-anchor="middle" x="1077.0519" y="-33.5" font-family="Times,serif" font-size="14.00" fill="#000000">in</text>
<polyline fill="none" stroke="#000000" points="1090.4972,-25.3 1090.4972,-50.1 "/>
<text text-anchor="middle" x="1135.8177" y="-33.5" font-family="Times,serif" font-size="14.00" fill="#000000">20x1x1(data)</text>
<polyline fill="none" stroke="#000000" points="1181.1382,-25.3 1181.1382,-50.1 "/>
<text text-anchor="middle" x="1233.85" y="-33.5" font-family="Times,serif" font-size="14.00" fill="#000000">20x2x1(weight)</text>
<polyline fill="none" stroke="#000000" points="1286.5618,-25.3 1286.5618,-50.1 "/>
<text text-anchor="middle" x="1327.9973" y="-33.5" font-family="Times,serif" font-size="14.00" fill="#000000">2x1x1(bias)</text>
<polyline fill="none" stroke="#000000" points="1063.6066,-25.3 1369.4328,-25.3 "/>
<text text-anchor="middle" x="1127.5519" y="-8.7" font-family="Times,serif" font-size="14.00" fill="#000000">out</text>
<polyline fill="none" stroke="#000000" points="1191.4972,-.5 1191.4972,-25.3 "/>
<text text-anchor="middle" x="1280.3177" y="-8.7" font-family="Times,serif" font-size="14.00" fill="#000000">2x1x1(data)</text>
</g>
<!-- relu&#45;activation1&#45;&gt;fully&#45;connected2 -->
<g id="edge12" class="edge">
<title>relu-activation1:out0-&gt;fully-connected2:in0</title>
<path fill="none" stroke="#000000" d="M1135.594,-86.9C1135.594,-74.5729 1135.594,-69.252 1135.594,-60.3186"/>
<polygon fill="#000000" stroke="#000000" points="1139.0941,-60.3 1135.594,-50.3 1132.0941,-60.3 1139.0941,-60.3"/>
</g>
</g>
</svg>